<svg xmlns="http://www.w3.org/2000/svg" width="1280" height="560" viewBox="0 0 1280 560">
  <rect x="0" y="0" width="1280" height="560" fill="#ffffff"/>
  <text x="70" y="44" font-family="Arial, Microsoft YaHei, sans-serif" font-size="24" fill="#111">Welding heat-source path evidence: x=v·t, y=A·sin(2πft)</text>
  <text x="70" y="76" font-family="Arial, Microsoft YaHei, sans-serif" font-size="16" fill="#444">A=3 mm, f=2 Hz, v=3 mm/s. Full 100 mm plate needs 33.33 s; current CFD ran only 0.35 s, x=1.05 mm.</text>

  <rect x="70.00" y="80.00" width="1100.00" height="360.00" fill="#f8fbff" stroke="#1f2937" stroke-width="1.5"/>
  <line x1="70.00" y1="260.00" x2="1170.00" y2="260.00" stroke="#9ca3af" stroke-width="1" stroke-dasharray="6 6"/>
  <line x1="70.00" y1="224.00" x2="1170.00" y2="224.00" stroke="#c7d2fe" stroke-width="1" stroke-dasharray="4 5"/>
  <line x1="70.00" y1="296.00" x2="1170.00" y2="296.00" stroke="#c7d2fe" stroke-width="1" stroke-dasharray="4 5"/>
  <text x="1182.00" y="265.00" font-family="Arial, Microsoft YaHei, sans-serif" font-size="14" fill="#6b7280">Y=0</text>
  <text x="1182.00" y="229.00" font-family="Arial, Microsoft YaHei, sans-serif" font-size="14" fill="#4f46e5">+3 mm</text>
  <text x="1182.00" y="301.00" font-family="Arial, Microsoft YaHei, sans-serif" font-size="14" fill="#4f46e5">-3 mm</text>

  <polyline points="70.00,260.00 70.40,254.59 70.79,249.31 71.19,244.26 71.58,239.58 71.98,235.36 72.38,231.69 72.77,228.67 73.17,226.36 73.56,224.82 73.96,224.07 74.36,224.14 74.75,225.02 75.15,226.70 75.54,229.13 75.94,232.26 76.34,236.02 76.73,240.33 77.13,245.08 77.52,250.17 77.92,255.49 78.32,260.90 78.71,266.30 79.11,271.55 79.50,276.54 79.90,281.16 80.30,285.30 80.69,288.86 81.09,291.76 81.48,293.95 81.88,295.36 82.28,295.97 82.67,295.77 83.07,294.75 83.46,292.95 83.86,290.40 84.26,287.15 84.65,283.29 85.05,278.91 85.44,274.09 85.84,268.95 86.24,263.61 86.63,258.19 87.03,252.81 87.42,247.59 87.82,242.66 88.22,238.11 88.61,234.07 89.01,230.61 89.40,227.82 89.80,225.76 90.20,224.48 90.59,224.00 90.99,224.34 91.38,225.49 91.78,227.43 92.18,230.10 92.57,233.45 92.97,237.40 93.36,241.87 93.76,246.75 94.16,251.93 94.55,257.29 94.95,262.71 95.34,268.07 95.74,273.25 96.14,278.13 96.53,282.60 96.93,286.55 97.32,289.90 97.72,292.57 98.12,294.51 98.51,295.66 98.91,296.00 99.30,295.52 99.70,294.24 100.10,292.18 100.49,289.39 100.89,285.93 101.28,281.89 101.68,277.34 102.08,272.41 102.47,267.19 102.87,261.81 103.26,256.39 103.66,251.05 104.06,245.91 104.45,241.09 104.85,236.71 105.24,232.85 105.64,229.60 106.04,227.05 106.43,225.25 106.83,224.23 107.22,224.03 107.62,224.64 108.02,226.05 108.41,228.24 108.81,231.14 109.20,234.70 109.60,238.84 110.00,243.46 110.39,248.45 110.79,253.70 111.18,259.10 111.58,264.51 111.98,269.83 112.37,274.92 112.77,279.67 113.16,283.98 113.56,287.74 113.96,290.87 114.35,293.30 114.75,294.98 115.14,295.86 115.54,295.93 115.94,295.18 116.33,293.64 116.73,291.33 117.12,288.31 117.52,284.64 117.92,280.42 118.31,275.74 118.71,270.69 119.10,265.41 119.50,260.00 119.90,254.59 120.29,249.31 120.69,244.26 121.08,239.58 121.48,235.36 121.88,231.69 122.27,228.67 122.67,226.36 123.06,224.82 123.46,224.07 123.86,224.14 124.25,225.02 124.65,226.70 125.04,229.13 125.44,232.26 125.84,236.02 126.23,240.33 126.63,245.08 127.02,250.17 127.42,255.49 127.82,260.90 128.21,266.30 128.61,271.55 129.00,276.54 129.40,281.16 129.80,285.30 130.19,288.86 130.59,291.76 130.98,293.95 131.38,295.36 131.78,295.97 132.17,295.77 132.57,294.75 132.96,292.95 133.36,290.40 133.76,287.15 134.15,283.29 134.55,278.91 134.94,274.09 135.34,268.95 135.74,263.61 136.13,258.19 136.53,252.81 136.92,247.59 137.32,242.66 137.72,238.11 138.11,234.07 138.51,230.61 138.90,227.82 139.30,225.76 139.70,224.48 140.09,224.00 140.49,224.34 140.88,225.49 141.28,227.43 141.68,230.10 142.07,233.45 142.47,237.40 142.86,241.87 143.26,246.75 143.66,251.93 144.05,257.29 144.45,262.71 144.84,268.07 145.24,273.25 145.64,278.13 146.03,282.60 146.43,286.55 146.82,289.90 147.22,292.57 147.62,294.51 148.01,295.66 148.41,296.00 148.80,295.52 149.20,294.24 149.60,292.18 149.99,289.39 150.39,285.93 150.78,281.89 151.18,277.34 151.58,272.41 151.97,267.19 152.37,261.81 152.76,256.39 153.16,251.05 153.56,245.91 153.95,241.09 154.35,236.71 154.74,232.85 155.14,229.60 155.54,227.05 155.93,225.25 156.33,224.23 156.72,224.03 157.12,224.64 157.52,226.05 157.91,228.24 158.31,231.14 158.70,234.70 159.10,238.84 159.50,243.46 159.89,248.45 160.29,253.70 160.68,259.10 161.08,264.51 161.48,269.83 161.87,274.92 162.27,279.67 162.66,283.98 163.06,287.74 163.46,290.87 163.85,293.30 164.25,294.98 164.64,295.86 165.04,295.93 165.44,295.18 165.83,293.64 166.23,291.33 166.62,288.31 167.02,284.64 167.42,280.42 167.81,275.74 168.21,270.69 168.60,265.41 169.00,260.00 169.40,254.59 169.79,249.31 170.19,244.26 170.58,239.58 170.98,235.36 171.38,231.69 171.77,228.67 172.17,226.36 172.56,224.82 172.96,224.07 173.36,224.14 173.75,225.02 174.15,226.70 174.54,229.13 174.94,232.26 175.34,236.02 175.73,240.33 176.13,245.08 176.52,250.17 176.92,255.49 177.32,260.90 177.71,266.30 178.11,271.55 178.50,276.54 178.90,281.16 179.30,285.30 179.69,288.86 180.09,291.76 180.48,293.95 180.88,295.36 181.28,295.97 181.67,295.77 182.07,294.75 182.46,292.95 182.86,290.40 183.26,287.15 183.65,283.29 184.05,278.91 184.44,274.09 184.84,268.95 185.24,263.61 185.63,258.19 186.03,252.81 186.42,247.59 186.82,242.66 187.22,238.11 187.61,234.07 188.01,230.61 188.40,227.82 188.80,225.76 189.20,224.48 189.59,224.00 189.99,224.34 190.38,225.49 190.78,227.43 191.18,230.10 191.57,233.45 191.97,237.40 192.36,241.87 192.76,246.75 193.16,251.93 193.55,257.29 193.95,262.71 194.34,268.07 194.74,273.25 195.14,278.13 195.53,282.60 195.93,286.55 196.32,289.90 196.72,292.57 197.12,294.51 197.51,295.66 197.91,296.00 198.30,295.52 198.70,294.24 199.10,292.18 199.49,289.39 199.89,285.93 200.28,281.89 200.68,277.34 201.08,272.41 201.47,267.19 201.87,261.81 202.26,256.39 202.66,251.05 203.06,245.91 203.45,241.09 203.85,236.71 204.24,232.85 204.64,229.60 205.04,227.05 205.43,225.25 205.83,224.23 206.22,224.03 206.62,224.64 207.02,226.05 207.41,228.24 207.81,231.14 208.20,234.70 208.60,238.84 209.00,243.46 209.39,248.45 209.79,253.70 210.18,259.10 210.58,264.51 210.98,269.83 211.37,274.92 211.77,279.67 212.16,283.98 212.56,287.74 212.96,290.87 213.35,293.30 213.75,294.98 214.14,295.86 214.54,295.93 214.94,295.18 215.33,293.64 215.73,291.33 216.12,288.31 216.52,284.64 216.92,280.42 217.31,275.74 217.71,270.69 218.10,265.41 218.50,260.00 218.90,254.59 219.29,249.31 219.69,244.26 220.08,239.58 220.48,235.36 220.88,231.69 221.27,228.67 221.67,226.36 222.06,224.82 222.46,224.07 222.86,224.14 223.25,225.02 223.65,226.70 224.04,229.13 224.44,232.26 224.84,236.02 225.23,240.33 225.63,245.08 226.02,250.17 226.42,255.49 226.82,260.90 227.21,266.30 227.61,271.55 228.00,276.54 228.40,281.16 228.80,285.30 229.19,288.86 229.59,291.76 229.98,293.95 230.38,295.36 230.78,295.97 231.17,295.77 231.57,294.75 231.96,292.95 232.36,290.40 232.76,287.15 233.15,283.29 233.55,278.91 233.94,274.09 234.34,268.95 234.74,263.61 235.13,258.19 235.53,252.81 235.92,247.59 236.32,242.66 236.72,238.11 237.11,234.07 237.51,230.61 237.90,227.82 238.30,225.76 238.70,224.48 239.09,224.00 239.49,224.34 239.88,225.49 240.28,227.43 240.68,230.10 241.07,233.45 241.47,237.40 241.86,241.87 242.26,246.75 242.66,251.93 243.05,257.29 243.45,262.71 243.84,268.07 244.24,273.25 244.64,278.13 245.03,282.60 245.43,286.55 245.82,289.90 246.22,292.57 246.62,294.51 247.01,295.66 247.41,296.00 247.80,295.52 248.20,294.24 248.60,292.18 248.99,289.39 249.39,285.93 249.78,281.89 250.18,277.34 250.58,272.41 250.97,267.19 251.37,261.81 251.76,256.39 252.16,251.05 252.56,245.91 252.95,241.09 253.35,236.71 253.74,232.85 254.14,229.60 254.54,227.05 254.93,225.25 255.33,224.23 255.72,224.03 256.12,224.64 256.52,226.05 256.91,228.24 257.31,231.14 257.70,234.70 258.10,238.84 258.50,243.46 258.89,248.45 259.29,253.70 259.68,259.10 260.08,264.51 260.48,269.83 260.87,274.92 261.27,279.67 261.66,283.98 262.06,287.74 262.46,290.87 262.85,293.30 263.25,294.98 263.64,295.86 264.04,295.93 264.44,295.18 264.83,293.64 265.23,291.33 265.62,288.31 266.02,284.64 266.42,280.42 266.81,275.74 267.21,270.69 267.60,265.41 268.00,260.00 268.40,254.59 268.79,249.31 269.19,244.26 269.58,239.58 269.98,235.36 270.38,231.69 270.77,228.67 271.17,226.36 271.56,224.82 271.96,224.07 272.36,224.14 272.75,225.02 273.15,226.70 273.54,229.13 273.94,232.26 274.34,236.02 274.73,240.33 275.13,245.08 275.52,250.17 275.92,255.49 276.32,260.90 276.71,266.30 277.11,271.55 277.50,276.54 277.90,281.16 278.30,285.30 278.69,288.86 279.09,291.76 279.48,293.95 279.88,295.36 280.28,295.97 280.67,295.77 281.07,294.75 281.46,292.95 281.86,290.40 282.26,287.15 282.65,283.29 283.05,278.91 283.44,274.09 283.84,268.95 284.24,263.61 284.63,258.19 285.03,252.81 285.42,247.59 285.82,242.66 286.22,238.11 286.61,234.07 287.01,230.61 287.40,227.82 287.80,225.76 288.20,224.48 288.59,224.00 288.99,224.34 289.38,225.49 289.78,227.43 290.18,230.10 290.57,233.45 290.97,237.40 291.36,241.87 291.76,246.75 292.16,251.93 292.55,257.29 292.95,262.71 293.34,268.07 293.74,273.25 294.14,278.13 294.53,282.60 294.93,286.55 295.32,289.90 295.72,292.57 296.12,294.51 296.51,295.66 296.91,296.00 297.30,295.52 297.70,294.24 298.10,292.18 298.49,289.39 298.89,285.93 299.28,281.89 299.68,277.34 300.08,272.41 300.47,267.19 300.87,261.81 301.26,256.39 301.66,251.05 302.06,245.91 302.45,241.09 302.85,236.71 303.24,232.85 303.64,229.60 304.04,227.05 304.43,225.25 304.83,224.23 305.22,224.03 305.62,224.64 306.02,226.05 306.41,228.24 306.81,231.14 307.20,234.70 307.60,238.84 308.00,243.46 308.39,248.45 308.79,253.70 309.18,259.10 309.58,264.51 309.98,269.83 310.37,274.92 310.77,279.67 311.16,283.98 311.56,287.74 311.96,290.87 312.35,293.30 312.75,294.98 313.14,295.86 313.54,295.93 313.94,295.18 314.33,293.64 314.73,291.33 315.12,288.31 315.52,284.64 315.92,280.42 316.31,275.74 316.71,270.69 317.10,265.41 317.50,260.00 317.90,254.59 318.29,249.31 318.69,244.26 319.08,239.58 319.48,235.36 319.88,231.69 320.27,228.67 320.67,226.36 321.06,224.82 321.46,224.07 321.86,224.14 322.25,225.02 322.65,226.70 323.04,229.13 323.44,232.26 323.84,236.02 324.23,240.33 324.63,245.08 325.02,250.17 325.42,255.49 325.82,260.90 326.21,266.30 326.61,271.55 327.00,276.54 327.40,281.16 327.80,285.30 328.19,288.86 328.59,291.76 328.98,293.95 329.38,295.36 329.78,295.97 330.17,295.77 330.57,294.75 330.96,292.95 331.36,290.40 331.76,287.15 332.15,283.29 332.55,278.91 332.94,274.09 333.34,268.95 333.74,263.61 334.13,258.19 334.53,252.81 334.92,247.59 335.32,242.66 335.72,238.11 336.11,234.07 336.51,230.61 336.90,227.82 337.30,225.76 337.70,224.48 338.09,224.00 338.49,224.34 338.88,225.49 339.28,227.43 339.68,230.10 340.07,233.45 340.47,237.40 340.86,241.87 341.26,246.75 341.66,251.93 342.05,257.29 342.45,262.71 342.84,268.07 343.24,273.25 343.64,278.13 344.03,282.60 344.43,286.55 344.82,289.90 345.22,292.57 345.62,294.51 346.01,295.66 346.41,296.00 346.80,295.52 347.20,294.24 347.60,292.18 347.99,289.39 348.39,285.93 348.78,281.89 349.18,277.34 349.58,272.41 349.97,267.19 350.37,261.81 350.76,256.39 351.16,251.05 351.56,245.91 351.95,241.09 352.35,236.71 352.74,232.85 353.14,229.60 353.54,227.05 353.93,225.25 354.33,224.23 354.72,224.03 355.12,224.64 355.52,226.05 355.91,228.24 356.31,231.14 356.70,234.70 357.10,238.84 357.50,243.46 357.89,248.45 358.29,253.70 358.68,259.10 359.08,264.51 359.48,269.83 359.87,274.92 360.27,279.67 360.66,283.98 361.06,287.74 361.46,290.87 361.85,293.30 362.25,294.98 362.64,295.86 363.04,295.93 363.44,295.18 363.83,293.64 364.23,291.33 364.62,288.31 365.02,284.64 365.42,280.42 365.81,275.74 366.21,270.69 366.60,265.41 367.00,260.00 367.40,254.59 367.79,249.31 368.19,244.26 368.58,239.58 368.98,235.36 369.38,231.69 369.77,228.67 370.17,226.36 370.56,224.82 370.96,224.07 371.36,224.14 371.75,225.02 372.15,226.70 372.54,229.13 372.94,232.26 373.34,236.02 373.73,240.33 374.13,245.08 374.52,250.17 374.92,255.49 375.32,260.90 375.71,266.30 376.11,271.55 376.50,276.54 376.90,281.16 377.30,285.30 377.69,288.86 378.09,291.76 378.48,293.95 378.88,295.36 379.28,295.97 379.67,295.77 380.07,294.75 380.46,292.95 380.86,290.40 381.26,287.15 381.65,283.29 382.05,278.91 382.44,274.09 382.84,268.95 383.24,263.61 383.63,258.19 384.03,252.81 384.42,247.59 384.82,242.66 385.22,238.11 385.61,234.07 386.01,230.61 386.40,227.82 386.80,225.76 387.20,224.48 387.59,224.00 387.99,224.34 388.38,225.49 388.78,227.43 389.18,230.10 389.57,233.45 389.97,237.40 390.36,241.87 390.76,246.75 391.16,251.93 391.55,257.29 391.95,262.71 392.34,268.07 392.74,273.25 393.14,278.13 393.53,282.60 393.93,286.55 394.32,289.90 394.72,292.57 395.12,294.51 395.51,295.66 395.91,296.00 396.30,295.52 396.70,294.24 397.10,292.18 397.49,289.39 397.89,285.93 398.28,281.89 398.68,277.34 399.08,272.41 399.47,267.19 399.87,261.81 400.26,256.39 400.66,251.05 401.06,245.91 401.45,241.09 401.85,236.71 402.24,232.85 402.64,229.60 403.04,227.05 403.43,225.25 403.83,224.23 404.22,224.03 404.62,224.64 405.02,226.05 405.41,228.24 405.81,231.14 406.20,234.70 406.60,238.84 407.00,243.46 407.39,248.45 407.79,253.70 408.18,259.10 408.58,264.51 408.98,269.83 409.37,274.92 409.77,279.67 410.16,283.98 410.56,287.74 410.96,290.87 411.35,293.30 411.75,294.98 412.14,295.86 412.54,295.93 412.94,295.18 413.33,293.64 413.73,291.33 414.12,288.31 414.52,284.64 414.92,280.42 415.31,275.74 415.71,270.69 416.10,265.41 416.50,260.00 416.90,254.59 417.29,249.31 417.69,244.26 418.08,239.58 418.48,235.36 418.88,231.69 419.27,228.67 419.67,226.36 420.06,224.82 420.46,224.07 420.86,224.14 421.25,225.02 421.65,226.70 422.04,229.13 422.44,232.26 422.84,236.02 423.23,240.33 423.63,245.08 424.02,250.17 424.42,255.49 424.82,260.90 425.21,266.30 425.61,271.55 426.00,276.54 426.40,281.16 426.80,285.30 427.19,288.86 427.59,291.76 427.98,293.95 428.38,295.36 428.78,295.97 429.17,295.77 429.57,294.75 429.96,292.95 430.36,290.40 430.76,287.15 431.15,283.29 431.55,278.91 431.94,274.09 432.34,268.95 432.74,263.61 433.13,258.19 433.53,252.81 433.92,247.59 434.32,242.66 434.72,238.11 435.11,234.07 435.51,230.61 435.90,227.82 436.30,225.76 436.70,224.48 437.09,224.00 437.49,224.34 437.88,225.49 438.28,227.43 438.68,230.10 439.07,233.45 439.47,237.40 439.86,241.87 440.26,246.75 440.66,251.93 441.05,257.29 441.45,262.71 441.84,268.07 442.24,273.25 442.64,278.13 443.03,282.60 443.43,286.55 443.82,289.90 444.22,292.57 444.62,294.51 445.01,295.66 445.41,296.00 445.80,295.52 446.20,294.24 446.60,292.18 446.99,289.39 447.39,285.93 447.78,281.89 448.18,277.34 448.58,272.41 448.97,267.19 449.37,261.81 449.76,256.39 450.16,251.05 450.56,245.91 450.95,241.09 451.35,236.71 451.74,232.85 452.14,229.60 452.54,227.05 452.93,225.25 453.33,224.23 453.72,224.03 454.12,224.64 454.52,226.05 454.91,228.24 455.31,231.14 455.70,234.70 456.10,238.84 456.50,243.46 456.89,248.45 457.29,253.70 457.68,259.10 458.08,264.51 458.48,269.83 458.87,274.92 459.27,279.67 459.66,283.98 460.06,287.74 460.46,290.87 460.85,293.30 461.25,294.98 461.64,295.86 462.04,295.93 462.44,295.18 462.83,293.64 463.23,291.33 463.62,288.31 464.02,284.64 464.42,280.42 464.81,275.74 465.21,270.69 465.60,265.41 466.00,260.00 466.40,254.59 466.79,249.31 467.19,244.26 467.58,239.58 467.98,235.36 468.38,231.69 468.77,228.67 469.17,226.36 469.56,224.82 469.96,224.07 470.36,224.14 470.75,225.02 471.15,226.70 471.54,229.13 471.94,232.26 472.34,236.02 472.73,240.33 473.13,245.08 473.52,250.17 473.92,255.49 474.32,260.90 474.71,266.30 475.11,271.55 475.50,276.54 475.90,281.16 476.30,285.30 476.69,288.86 477.09,291.76 477.48,293.95 477.88,295.36 478.28,295.97 478.67,295.77 479.07,294.75 479.46,292.95 479.86,290.40 480.26,287.15 480.65,283.29 481.05,278.91 481.44,274.09 481.84,268.95 482.24,263.61 482.63,258.19 483.03,252.81 483.42,247.59 483.82,242.66 484.22,238.11 484.61,234.07 485.01,230.61 485.40,227.82 485.80,225.76 486.20,224.48 486.59,224.00 486.99,224.34 487.38,225.49 487.78,227.43 488.18,230.10 488.57,233.45 488.97,237.40 489.36,241.87 489.76,246.75 490.16,251.93 490.55,257.29 490.95,262.71 491.34,268.07 491.74,273.25 492.14,278.13 492.53,282.60 492.93,286.55 493.32,289.90 493.72,292.57 494.12,294.51 494.51,295.66 494.91,296.00 495.30,295.52 495.70,294.24 496.10,292.18 496.49,289.39 496.89,285.93 497.28,281.89 497.68,277.34 498.08,272.41 498.47,267.19 498.87,261.81 499.26,256.39 499.66,251.05 500.06,245.91 500.45,241.09 500.85,236.71 501.24,232.85 501.64,229.60 502.04,227.05 502.43,225.25 502.83,224.23 503.22,224.03 503.62,224.64 504.02,226.05 504.41,228.24 504.81,231.14 505.20,234.70 505.60,238.84 506.00,243.46 506.39,248.45 506.79,253.70 507.18,259.10 507.58,264.51 507.98,269.83 508.37,274.92 508.77,279.67 509.16,283.98 509.56,287.74 509.96,290.87 510.35,293.30 510.75,294.98 511.14,295.86 511.54,295.93 511.94,295.18 512.33,293.64 512.73,291.33 513.12,288.31 513.52,284.64 513.92,280.42 514.31,275.74 514.71,270.69 515.10,265.41 515.50,260.00 515.90,254.59 516.29,249.31 516.69,244.26 517.08,239.58 517.48,235.36 517.88,231.69 518.27,228.67 518.67,226.36 519.06,224.82 519.46,224.07 519.86,224.14 520.25,225.02 520.65,226.70 521.04,229.13 521.44,232.26 521.84,236.02 522.23,240.33 522.63,245.08 523.02,250.17 523.42,255.49 523.82,260.90 524.21,266.30 524.61,271.55 525.00,276.54 525.40,281.16 525.80,285.30 526.19,288.86 526.59,291.76 526.98,293.95 527.38,295.36 527.78,295.97 528.17,295.77 528.57,294.75 528.96,292.95 529.36,290.40 529.76,287.15 530.15,283.29 530.55,278.91 530.94,274.09 531.34,268.95 531.74,263.61 532.13,258.19 532.53,252.81 532.92,247.59 533.32,242.66 533.72,238.11 534.11,234.07 534.51,230.61 534.90,227.82 535.30,225.76 535.70,224.48 536.09,224.00 536.49,224.34 536.88,225.49 537.28,227.43 537.68,230.10 538.07,233.45 538.47,237.40 538.86,241.87 539.26,246.75 539.66,251.93 540.05,257.29 540.45,262.71 540.84,268.07 541.24,273.25 541.64,278.13 542.03,282.60 542.43,286.55 542.82,289.90 543.22,292.57 543.62,294.51 544.01,295.66 544.41,296.00 544.80,295.52 545.20,294.24 545.60,292.18 545.99,289.39 546.39,285.93 546.78,281.89 547.18,277.34 547.58,272.41 547.97,267.19 548.37,261.81 548.76,256.39 549.16,251.05 549.56,245.91 549.95,241.09 550.35,236.71 550.74,232.85 551.14,229.60 551.54,227.05 551.93,225.25 552.33,224.23 552.72,224.03 553.12,224.64 553.52,226.05 553.91,228.24 554.31,231.14 554.70,234.70 555.10,238.84 555.50,243.46 555.89,248.45 556.29,253.70 556.68,259.10 557.08,264.51 557.48,269.83 557.87,274.92 558.27,279.67 558.66,283.98 559.06,287.74 559.46,290.87 559.85,293.30 560.25,294.98 560.64,295.86 561.04,295.93 561.44,295.18 561.83,293.64 562.23,291.33 562.62,288.31 563.02,284.64 563.42,280.42 563.81,275.74 564.21,270.69 564.60,265.41 565.00,260.00 565.40,254.59 565.79,249.31 566.19,244.26 566.58,239.58 566.98,235.36 567.38,231.69 567.77,228.67 568.17,226.36 568.56,224.82 568.96,224.07 569.36,224.14 569.75,225.02 570.15,226.70 570.54,229.13 570.94,232.26 571.34,236.02 571.73,240.33 572.13,245.08 572.52,250.17 572.92,255.49 573.32,260.90 573.71,266.30 574.11,271.55 574.50,276.54 574.90,281.16 575.30,285.30 575.69,288.86 576.09,291.76 576.48,293.95 576.88,295.36 577.28,295.97 577.67,295.77 578.07,294.75 578.46,292.95 578.86,290.40 579.26,287.15 579.65,283.29 580.05,278.91 580.44,274.09 580.84,268.95 581.24,263.61 581.63,258.19 582.03,252.81 582.42,247.59 582.82,242.66 583.22,238.11 583.61,234.07 584.01,230.61 584.40,227.82 584.80,225.76 585.20,224.48 585.59,224.00 585.99,224.34 586.38,225.49 586.78,227.43 587.18,230.10 587.57,233.45 587.97,237.40 588.36,241.87 588.76,246.75 589.16,251.93 589.55,257.29 589.95,262.71 590.34,268.07 590.74,273.25 591.14,278.13 591.53,282.60 591.93,286.55 592.32,289.90 592.72,292.57 593.12,294.51 593.51,295.66 593.91,296.00 594.30,295.52 594.70,294.24 595.10,292.18 595.49,289.39 595.89,285.93 596.28,281.89 596.68,277.34 597.08,272.41 597.47,267.19 597.87,261.81 598.26,256.39 598.66,251.05 599.06,245.91 599.45,241.09 599.85,236.71 600.24,232.85 600.64,229.60 601.04,227.05 601.43,225.25 601.83,224.23 602.22,224.03 602.62,224.64 603.02,226.05 603.41,228.24 603.81,231.14 604.20,234.70 604.60,238.84 605.00,243.46 605.39,248.45 605.79,253.70 606.18,259.10 606.58,264.51 606.98,269.83 607.37,274.92 607.77,279.67 608.16,283.98 608.56,287.74 608.96,290.87 609.35,293.30 609.75,294.98 610.14,295.86 610.54,295.93 610.94,295.18 611.33,293.64 611.73,291.33 612.12,288.31 612.52,284.64 612.92,280.42 613.31,275.74 613.71,270.69 614.10,265.41 614.50,260.00 614.90,254.59 615.29,249.31 615.69,244.26 616.08,239.58 616.48,235.36 616.88,231.69 617.27,228.67 617.67,226.36 618.06,224.82 618.46,224.07 618.86,224.14 619.25,225.02 619.65,226.70 620.04,229.13 620.44,232.26 620.84,236.02 621.23,240.33 621.63,245.08 622.02,250.17 622.42,255.49 622.82,260.90 623.21,266.30 623.61,271.55 624.00,276.54 624.40,281.16 624.80,285.30 625.19,288.86 625.59,291.76 625.98,293.95 626.38,295.36 626.78,295.97 627.17,295.77 627.57,294.75 627.96,292.95 628.36,290.40 628.76,287.15 629.15,283.29 629.55,278.91 629.94,274.09 630.34,268.95 630.74,263.61 631.13,258.19 631.53,252.81 631.92,247.59 632.32,242.66 632.72,238.11 633.11,234.07 633.51,230.61 633.90,227.82 634.30,225.76 634.70,224.48 635.09,224.00 635.49,224.34 635.88,225.49 636.28,227.43 636.68,230.10 637.07,233.45 637.47,237.40 637.86,241.87 638.26,246.75 638.66,251.93 639.05,257.29 639.45,262.71 639.84,268.07 640.24,273.25 640.64,278.13 641.03,282.60 641.43,286.55 641.82,289.90 642.22,292.57 642.62,294.51 643.01,295.66 643.41,296.00 643.80,295.52 644.20,294.24 644.60,292.18 644.99,289.39 645.39,285.93 645.78,281.89 646.18,277.34 646.58,272.41 646.97,267.19 647.37,261.81 647.76,256.39 648.16,251.05 648.56,245.91 648.95,241.09 649.35,236.71 649.74,232.85 650.14,229.60 650.54,227.05 650.93,225.25 651.33,224.23 651.72,224.03 652.12,224.64 652.52,226.05 652.91,228.24 653.31,231.14 653.70,234.70 654.10,238.84 654.50,243.46 654.89,248.45 655.29,253.70 655.68,259.10 656.08,264.51 656.48,269.83 656.87,274.92 657.27,279.67 657.66,283.98 658.06,287.74 658.46,290.87 658.85,293.30 659.25,294.98 659.64,295.86 660.04,295.93 660.44,295.18 660.83,293.64 661.23,291.33 661.62,288.31 662.02,284.64 662.42,280.42 662.81,275.74 663.21,270.69 663.60,265.41 664.00,260.00 664.40,254.59 664.79,249.31 665.19,244.26 665.58,239.58 665.98,235.36 666.38,231.69 666.77,228.67 667.17,226.36 667.56,224.82 667.96,224.07 668.36,224.14 668.75,225.02 669.15,226.70 669.54,229.13 669.94,232.26 670.34,236.02 670.73,240.33 671.13,245.08 671.52,250.17 671.92,255.49 672.32,260.90 672.71,266.30 673.11,271.55 673.50,276.54 673.90,281.16 674.30,285.30 674.69,288.86 675.09,291.76 675.48,293.95 675.88,295.36 676.28,295.97 676.67,295.77 677.07,294.75 677.46,292.95 677.86,290.40 678.26,287.15 678.65,283.29 679.05,278.91 679.44,274.09 679.84,268.95 680.24,263.61 680.63,258.19 681.03,252.81 681.42,247.59 681.82,242.66 682.22,238.11 682.61,234.07 683.01,230.61 683.40,227.82 683.80,225.76 684.20,224.48 684.59,224.00 684.99,224.34 685.38,225.49 685.78,227.43 686.18,230.10 686.57,233.45 686.97,237.40 687.36,241.87 687.76,246.75 688.16,251.93 688.55,257.29 688.95,262.71 689.34,268.07 689.74,273.25 690.14,278.13 690.53,282.60 690.93,286.55 691.32,289.90 691.72,292.57 692.12,294.51 692.51,295.66 692.91,296.00 693.30,295.52 693.70,294.24 694.10,292.18 694.49,289.39 694.89,285.93 695.28,281.89 695.68,277.34 696.08,272.41 696.47,267.19 696.87,261.81 697.26,256.39 697.66,251.05 698.06,245.91 698.45,241.09 698.85,236.71 699.24,232.85 699.64,229.60 700.04,227.05 700.43,225.25 700.83,224.23 701.22,224.03 701.62,224.64 702.02,226.05 702.41,228.24 702.81,231.14 703.20,234.70 703.60,238.84 704.00,243.46 704.39,248.45 704.79,253.70 705.18,259.10 705.58,264.51 705.98,269.83 706.37,274.92 706.77,279.67 707.16,283.98 707.56,287.74 707.96,290.87 708.35,293.30 708.75,294.98 709.14,295.86 709.54,295.93 709.94,295.18 710.33,293.64 710.73,291.33 711.12,288.31 711.52,284.64 711.92,280.42 712.31,275.74 712.71,270.69 713.10,265.41 713.50,260.00 713.90,254.59 714.29,249.31 714.69,244.26 715.08,239.58 715.48,235.36 715.88,231.69 716.27,228.67 716.67,226.36 717.06,224.82 717.46,224.07 717.86,224.14 718.25,225.02 718.65,226.70 719.04,229.13 719.44,232.26 719.84,236.02 720.23,240.33 720.63,245.08 721.02,250.17 721.42,255.49 721.82,260.90 722.21,266.30 722.61,271.55 723.00,276.54 723.40,281.16 723.80,285.30 724.19,288.86 724.59,291.76 724.98,293.95 725.38,295.36 725.78,295.97 726.17,295.77 726.57,294.75 726.96,292.95 727.36,290.40 727.76,287.15 728.15,283.29 728.55,278.91 728.94,274.09 729.34,268.95 729.74,263.61 730.13,258.19 730.53,252.81 730.92,247.59 731.32,242.66 731.72,238.11 732.11,234.07 732.51,230.61 732.90,227.82 733.30,225.76 733.70,224.48 734.09,224.00 734.49,224.34 734.88,225.49 735.28,227.43 735.68,230.10 736.07,233.45 736.47,237.40 736.86,241.87 737.26,246.75 737.66,251.93 738.05,257.29 738.45,262.71 738.84,268.07 739.24,273.25 739.64,278.13 740.03,282.60 740.43,286.55 740.82,289.90 741.22,292.57 741.62,294.51 742.01,295.66 742.41,296.00 742.80,295.52 743.20,294.24 743.60,292.18 743.99,289.39 744.39,285.93 744.78,281.89 745.18,277.34 745.58,272.41 745.97,267.19 746.37,261.81 746.76,256.39 747.16,251.05 747.56,245.91 747.95,241.09 748.35,236.71 748.74,232.85 749.14,229.60 749.54,227.05 749.93,225.25 750.33,224.23 750.72,224.03 751.12,224.64 751.52,226.05 751.91,228.24 752.31,231.14 752.70,234.70 753.10,238.84 753.50,243.46 753.89,248.45 754.29,253.70 754.68,259.10 755.08,264.51 755.48,269.83 755.87,274.92 756.27,279.67 756.66,283.98 757.06,287.74 757.46,290.87 757.85,293.30 758.25,294.98 758.64,295.86 759.04,295.93 759.44,295.18 759.83,293.64 760.23,291.33 760.62,288.31 761.02,284.64 761.42,280.42 761.81,275.74 762.21,270.69 762.60,265.41 763.00,260.00 763.40,254.59 763.79,249.31 764.19,244.26 764.58,239.58 764.98,235.36 765.38,231.69 765.77,228.67 766.17,226.36 766.56,224.82 766.96,224.07 767.36,224.14 767.75,225.02 768.15,226.70 768.54,229.13 768.94,232.26 769.34,236.02 769.73,240.33 770.13,245.08 770.52,250.17 770.92,255.49 771.32,260.90 771.71,266.30 772.11,271.55 772.50,276.54 772.90,281.16 773.30,285.30 773.69,288.86 774.09,291.76 774.48,293.95 774.88,295.36 775.28,295.97 775.67,295.77 776.07,294.75 776.46,292.95 776.86,290.40 777.26,287.15 777.65,283.29 778.05,278.91 778.44,274.09 778.84,268.95 779.24,263.61 779.63,258.19 780.03,252.81 780.42,247.59 780.82,242.66 781.22,238.11 781.61,234.07 782.01,230.61 782.40,227.82 782.80,225.76 783.20,224.48 783.59,224.00 783.99,224.34 784.38,225.49 784.78,227.43 785.18,230.10 785.57,233.45 785.97,237.40 786.36,241.87 786.76,246.75 787.16,251.93 787.55,257.29 787.95,262.71 788.34,268.07 788.74,273.25 789.14,278.13 789.53,282.60 789.93,286.55 790.32,289.90 790.72,292.57 791.12,294.51 791.51,295.66 791.91,296.00 792.30,295.52 792.70,294.24 793.10,292.18 793.49,289.39 793.89,285.93 794.28,281.89 794.68,277.34 795.08,272.41 795.47,267.19 795.87,261.81 796.26,256.39 796.66,251.05 797.06,245.91 797.45,241.09 797.85,236.71 798.24,232.85 798.64,229.60 799.04,227.05 799.43,225.25 799.83,224.23 800.22,224.03 800.62,224.64 801.02,226.05 801.41,228.24 801.81,231.14 802.20,234.70 802.60,238.84 803.00,243.46 803.39,248.45 803.79,253.70 804.18,259.10 804.58,264.51 804.98,269.83 805.37,274.92 805.77,279.67 806.16,283.98 806.56,287.74 806.96,290.87 807.35,293.30 807.75,294.98 808.14,295.86 808.54,295.93 808.94,295.18 809.33,293.64 809.73,291.33 810.12,288.31 810.52,284.64 810.92,280.42 811.31,275.74 811.71,270.69 812.10,265.41 812.50,260.00 812.90,254.59 813.29,249.31 813.69,244.26 814.08,239.58 814.48,235.36 814.88,231.69 815.27,228.67 815.67,226.36 816.06,224.82 816.46,224.07 816.86,224.14 817.25,225.02 817.65,226.70 818.04,229.13 818.44,232.26 818.84,236.02 819.23,240.33 819.63,245.08 820.02,250.17 820.42,255.49 820.82,260.90 821.21,266.30 821.61,271.55 822.00,276.54 822.40,281.16 822.80,285.30 823.19,288.86 823.59,291.76 823.98,293.95 824.38,295.36 824.78,295.97 825.17,295.77 825.57,294.75 825.96,292.95 826.36,290.40 826.76,287.15 827.15,283.29 827.55,278.91 827.94,274.09 828.34,268.95 828.74,263.61 829.13,258.19 829.53,252.81 829.92,247.59 830.32,242.66 830.72,238.11 831.11,234.07 831.51,230.61 831.90,227.82 832.30,225.76 832.70,224.48 833.09,224.00 833.49,224.34 833.88,225.49 834.28,227.43 834.68,230.10 835.07,233.45 835.47,237.40 835.86,241.87 836.26,246.75 836.66,251.93 837.05,257.29 837.45,262.71 837.84,268.07 838.24,273.25 838.64,278.13 839.03,282.60 839.43,286.55 839.82,289.90 840.22,292.57 840.62,294.51 841.01,295.66 841.41,296.00 841.80,295.52 842.20,294.24 842.60,292.18 842.99,289.39 843.39,285.93 843.78,281.89 844.18,277.34 844.58,272.41 844.97,267.19 845.37,261.81 845.76,256.39 846.16,251.05 846.56,245.91 846.95,241.09 847.35,236.71 847.74,232.85 848.14,229.60 848.54,227.05 848.93,225.25 849.33,224.23 849.72,224.03 850.12,224.64 850.52,226.05 850.91,228.24 851.31,231.14 851.70,234.70 852.10,238.84 852.50,243.46 852.89,248.45 853.29,253.70 853.68,259.10 854.08,264.51 854.48,269.83 854.87,274.92 855.27,279.67 855.66,283.98 856.06,287.74 856.46,290.87 856.85,293.30 857.25,294.98 857.64,295.86 858.04,295.93 858.44,295.18 858.83,293.64 859.23,291.33 859.62,288.31 860.02,284.64 860.42,280.42 860.81,275.74 861.21,270.69 861.60,265.41 862.00,260.00 862.40,254.59 862.79,249.31 863.19,244.26 863.58,239.58 863.98,235.36 864.38,231.69 864.77,228.67 865.17,226.36 865.56,224.82 865.96,224.07 866.36,224.14 866.75,225.02 867.15,226.70 867.54,229.13 867.94,232.26 868.34,236.02 868.73,240.33 869.13,245.08 869.52,250.17 869.92,255.49 870.32,260.90 870.71,266.30 871.11,271.55 871.50,276.54 871.90,281.16 872.30,285.30 872.69,288.86 873.09,291.76 873.48,293.95 873.88,295.36 874.28,295.97 874.67,295.77 875.07,294.75 875.46,292.95 875.86,290.40 876.26,287.15 876.65,283.29 877.05,278.91 877.44,274.09 877.84,268.95 878.24,263.61 878.63,258.19 879.03,252.81 879.42,247.59 879.82,242.66 880.22,238.11 880.61,234.07 881.01,230.61 881.40,227.82 881.80,225.76 882.20,224.48 882.59,224.00 882.99,224.34 883.38,225.49 883.78,227.43 884.18,230.10 884.57,233.45 884.97,237.40 885.36,241.87 885.76,246.75 886.16,251.93 886.55,257.29 886.95,262.71 887.34,268.07 887.74,273.25 888.14,278.13 888.53,282.60 888.93,286.55 889.32,289.90 889.72,292.57 890.12,294.51 890.51,295.66 890.91,296.00 891.30,295.52 891.70,294.24 892.10,292.18 892.49,289.39 892.89,285.93 893.28,281.89 893.68,277.34 894.08,272.41 894.47,267.19 894.87,261.81 895.26,256.39 895.66,251.05 896.06,245.91 896.45,241.09 896.85,236.71 897.24,232.85 897.64,229.60 898.04,227.05 898.43,225.25 898.83,224.23 899.22,224.03 899.62,224.64 900.02,226.05 900.41,228.24 900.81,231.14 901.20,234.70 901.60,238.84 902.00,243.46 902.39,248.45 902.79,253.70 903.18,259.10 903.58,264.51 903.98,269.83 904.37,274.92 904.77,279.67 905.16,283.98 905.56,287.74 905.96,290.87 906.35,293.30 906.75,294.98 907.14,295.86 907.54,295.93 907.94,295.18 908.33,293.64 908.73,291.33 909.12,288.31 909.52,284.64 909.92,280.42 910.31,275.74 910.71,270.69 911.10,265.41 911.50,260.00 911.90,254.59 912.29,249.31 912.69,244.26 913.08,239.58 913.48,235.36 913.88,231.69 914.27,228.67 914.67,226.36 915.06,224.82 915.46,224.07 915.86,224.14 916.25,225.02 916.65,226.70 917.04,229.13 917.44,232.26 917.84,236.02 918.23,240.33 918.63,245.08 919.02,250.17 919.42,255.49 919.82,260.90 920.21,266.30 920.61,271.55 921.00,276.54 921.40,281.16 921.80,285.30 922.19,288.86 922.59,291.76 922.98,293.95 923.38,295.36 923.78,295.97 924.17,295.77 924.57,294.75 924.96,292.95 925.36,290.40 925.76,287.15 926.15,283.29 926.55,278.91 926.94,274.09 927.34,268.95 927.74,263.61 928.13,258.19 928.53,252.81 928.92,247.59 929.32,242.66 929.72,238.11 930.11,234.07 930.51,230.61 930.90,227.82 931.30,225.76 931.70,224.48 932.09,224.00 932.49,224.34 932.88,225.49 933.28,227.43 933.68,230.10 934.07,233.45 934.47,237.40 934.86,241.87 935.26,246.75 935.66,251.93 936.05,257.29 936.45,262.71 936.84,268.07 937.24,273.25 937.64,278.13 938.03,282.60 938.43,286.55 938.82,289.90 939.22,292.57 939.62,294.51 940.01,295.66 940.41,296.00 940.80,295.52 941.20,294.24 941.60,292.18 941.99,289.39 942.39,285.93 942.78,281.89 943.18,277.34 943.58,272.41 943.97,267.19 944.37,261.81 944.76,256.39 945.16,251.05 945.56,245.91 945.95,241.09 946.35,236.71 946.74,232.85 947.14,229.60 947.54,227.05 947.93,225.25 948.33,224.23 948.72,224.03 949.12,224.64 949.52,226.05 949.91,228.24 950.31,231.14 950.70,234.70 951.10,238.84 951.50,243.46 951.89,248.45 952.29,253.70 952.68,259.10 953.08,264.51 953.48,269.83 953.87,274.92 954.27,279.67 954.66,283.98 955.06,287.74 955.46,290.87 955.85,293.30 956.25,294.98 956.64,295.86 957.04,295.93 957.44,295.18 957.83,293.64 958.23,291.33 958.62,288.31 959.02,284.64 959.42,280.42 959.81,275.74 960.21,270.69 960.60,265.41 961.00,260.00 961.40,254.59 961.79,249.31 962.19,244.26 962.58,239.58 962.98,235.36 963.38,231.69 963.77,228.67 964.17,226.36 964.56,224.82 964.96,224.07 965.36,224.14 965.75,225.02 966.15,226.70 966.54,229.13 966.94,232.26 967.34,236.02 967.73,240.33 968.13,245.08 968.52,250.17 968.92,255.49 969.32,260.90 969.71,266.30 970.11,271.55 970.50,276.54 970.90,281.16 971.30,285.30 971.69,288.86 972.09,291.76 972.48,293.95 972.88,295.36 973.28,295.97 973.67,295.77 974.07,294.75 974.46,292.95 974.86,290.40 975.26,287.15 975.65,283.29 976.05,278.91 976.44,274.09 976.84,268.95 977.24,263.61 977.63,258.19 978.03,252.81 978.42,247.59 978.82,242.66 979.22,238.11 979.61,234.07 980.01,230.61 980.40,227.82 980.80,225.76 981.20,224.48 981.59,224.00 981.99,224.34 982.38,225.49 982.78,227.43 983.18,230.10 983.57,233.45 983.97,237.40 984.36,241.87 984.76,246.75 985.16,251.93 985.55,257.29 985.95,262.71 986.34,268.07 986.74,273.25 987.14,278.13 987.53,282.60 987.93,286.55 988.32,289.90 988.72,292.57 989.12,294.51 989.51,295.66 989.91,296.00 990.30,295.52 990.70,294.24 991.10,292.18 991.49,289.39 991.89,285.93 992.28,281.89 992.68,277.34 993.08,272.41 993.47,267.19 993.87,261.81 994.26,256.39 994.66,251.05 995.06,245.91 995.45,241.09 995.85,236.71 996.24,232.85 996.64,229.60 997.04,227.05 997.43,225.25 997.83,224.23 998.22,224.03 998.62,224.64 999.02,226.05 999.41,228.24 999.81,231.14 1000.20,234.70 1000.60,238.84 1001.00,243.46 1001.39,248.45 1001.79,253.70 1002.18,259.10 1002.58,264.51 1002.98,269.83 1003.37,274.92 1003.77,279.67 1004.16,283.98 1004.56,287.74 1004.96,290.87 1005.35,293.30 1005.75,294.98 1006.14,295.86 1006.54,295.93 1006.94,295.18 1007.33,293.64 1007.73,291.33 1008.12,288.31 1008.52,284.64 1008.92,280.42 1009.31,275.74 1009.71,270.69 1010.10,265.41 1010.50,260.00 1010.90,254.59 1011.29,249.31 1011.69,244.26 1012.08,239.58 1012.48,235.36 1012.88,231.69 1013.27,228.67 1013.67,226.36 1014.06,224.82 1014.46,224.07 1014.86,224.14 1015.25,225.02 1015.65,226.70 1016.04,229.13 1016.44,232.26 1016.84,236.02 1017.23,240.33 1017.63,245.08 1018.02,250.17 1018.42,255.49 1018.82,260.90 1019.21,266.30 1019.61,271.55 1020.00,276.54 1020.40,281.16 1020.80,285.30 1021.19,288.86 1021.59,291.76 1021.98,293.95 1022.38,295.36 1022.78,295.97 1023.17,295.77 1023.57,294.75 1023.96,292.95 1024.36,290.40 1024.76,287.15 1025.15,283.29 1025.55,278.91 1025.94,274.09 1026.34,268.95 1026.74,263.61 1027.13,258.19 1027.53,252.81 1027.92,247.59 1028.32,242.66 1028.72,238.11 1029.11,234.07 1029.51,230.61 1029.90,227.82 1030.30,225.76 1030.70,224.48 1031.09,224.00 1031.49,224.34 1031.88,225.49 1032.28,227.43 1032.68,230.10 1033.07,233.45 1033.47,237.40 1033.86,241.87 1034.26,246.75 1034.66,251.93 1035.05,257.29 1035.45,262.71 1035.84,268.07 1036.24,273.25 1036.64,278.13 1037.03,282.60 1037.43,286.55 1037.82,289.90 1038.22,292.57 1038.62,294.51 1039.01,295.66 1039.41,296.00 1039.80,295.52 1040.20,294.24 1040.60,292.18 1040.99,289.39 1041.39,285.93 1041.78,281.89 1042.18,277.34 1042.58,272.41 1042.97,267.19 1043.37,261.81 1043.76,256.39 1044.16,251.05 1044.56,245.91 1044.95,241.09 1045.35,236.71 1045.74,232.85 1046.14,229.60 1046.54,227.05 1046.93,225.25 1047.33,224.23 1047.72,224.03 1048.12,224.64 1048.52,226.05 1048.91,228.24 1049.31,231.14 1049.70,234.70 1050.10,238.84 1050.50,243.46 1050.89,248.45 1051.29,253.70 1051.68,259.10 1052.08,264.51 1052.48,269.83 1052.87,274.92 1053.27,279.67 1053.66,283.98 1054.06,287.74 1054.46,290.87 1054.85,293.30 1055.25,294.98 1055.64,295.86 1056.04,295.93 1056.44,295.18 1056.83,293.64 1057.23,291.33 1057.62,288.31 1058.02,284.64 1058.42,280.42 1058.81,275.74 1059.21,270.69 1059.60,265.41 1060.00,260.00 1060.40,254.59 1060.79,249.31 1061.19,244.26 1061.58,239.58 1061.98,235.36 1062.38,231.69 1062.77,228.67 1063.17,226.36 1063.56,224.82 1063.96,224.07 1064.36,224.14 1064.75,225.02 1065.15,226.70 1065.54,229.13 1065.94,232.26 1066.34,236.02 1066.73,240.33 1067.13,245.08 1067.52,250.17 1067.92,255.49 1068.32,260.90 1068.71,266.30 1069.11,271.55 1069.50,276.54 1069.90,281.16 1070.30,285.30 1070.69,288.86 1071.09,291.76 1071.48,293.95 1071.88,295.36 1072.28,295.97 1072.67,295.77 1073.07,294.75 1073.46,292.95 1073.86,290.40 1074.26,287.15 1074.65,283.29 1075.05,278.91 1075.44,274.09 1075.84,268.95 1076.24,263.61 1076.63,258.19 1077.03,252.81 1077.42,247.59 1077.82,242.66 1078.22,238.11 1078.61,234.07 1079.01,230.61 1079.40,227.82 1079.80,225.76 1080.20,224.48 1080.59,224.00 1080.99,224.34 1081.38,225.49 1081.78,227.43 1082.18,230.10 1082.57,233.45 1082.97,237.40 1083.36,241.87 1083.76,246.75 1084.16,251.93 1084.55,257.29 1084.95,262.71 1085.34,268.07 1085.74,273.25 1086.14,278.13 1086.53,282.60 1086.93,286.55 1087.32,289.90 1087.72,292.57 1088.12,294.51 1088.51,295.66 1088.91,296.00 1089.30,295.52 1089.70,294.24 1090.10,292.18 1090.49,289.39 1090.89,285.93 1091.28,281.89 1091.68,277.34 1092.08,272.41 1092.47,267.19 1092.87,261.81 1093.26,256.39 1093.66,251.05 1094.06,245.91 1094.45,241.09 1094.85,236.71 1095.24,232.85 1095.64,229.60 1096.04,227.05 1096.43,225.25 1096.83,224.23 1097.22,224.03 1097.62,224.64 1098.02,226.05 1098.41,228.24 1098.81,231.14 1099.20,234.70 1099.60,238.84 1100.00,243.46 1100.39,248.45 1100.79,253.70 1101.18,259.10 1101.58,264.51 1101.98,269.83 1102.37,274.92 1102.77,279.67 1103.16,283.98 1103.56,287.74 1103.96,290.87 1104.35,293.30 1104.75,294.98 1105.14,295.86 1105.54,295.93 1105.94,295.18 1106.33,293.64 1106.73,291.33 1107.12,288.31 1107.52,284.64 1107.92,280.42 1108.31,275.74 1108.71,270.69 1109.10,265.41 1109.50,260.00 1109.90,254.59 1110.29,249.31 1110.69,244.26 1111.08,239.58 1111.48,235.36 1111.88,231.69 1112.27,228.67 1112.67,226.36 1113.06,224.82 1113.46,224.07 1113.86,224.14 1114.25,225.02 1114.65,226.70 1115.04,229.13 1115.44,232.26 1115.84,236.02 1116.23,240.33 1116.63,245.08 1117.02,250.17 1117.42,255.49 1117.82,260.90 1118.21,266.30 1118.61,271.55 1119.00,276.54 1119.40,281.16 1119.80,285.30 1120.19,288.86 1120.59,291.76 1120.98,293.95 1121.38,295.36 1121.78,295.97 1122.17,295.77 1122.57,294.75 1122.96,292.95 1123.36,290.40 1123.76,287.15 1124.15,283.29 1124.55,278.91 1124.94,274.09 1125.34,268.95 1125.74,263.61 1126.13,258.19 1126.53,252.81 1126.92,247.59 1127.32,242.66 1127.72,238.11 1128.11,234.07 1128.51,230.61 1128.90,227.82 1129.30,225.76 1129.70,224.48 1130.09,224.00 1130.49,224.34 1130.88,225.49 1131.28,227.43 1131.68,230.10 1132.07,233.45 1132.47,237.40 1132.86,241.87 1133.26,246.75 1133.66,251.93 1134.05,257.29 1134.45,262.71 1134.84,268.07 1135.24,273.25 1135.64,278.13 1136.03,282.60 1136.43,286.55 1136.82,289.90 1137.22,292.57 1137.62,294.51 1138.01,295.66 1138.41,296.00 1138.80,295.52 1139.20,294.24 1139.60,292.18 1139.99,289.39 1140.39,285.93 1140.78,281.89 1141.18,277.34 1141.58,272.41 1141.97,267.19 1142.37,261.81 1142.76,256.39 1143.16,251.05 1143.56,245.91 1143.95,241.09 1144.35,236.71 1144.74,232.85 1145.14,229.60 1145.54,227.05 1145.93,225.25 1146.33,224.23 1146.72,224.03 1147.12,224.64 1147.52,226.05 1147.91,228.24 1148.31,231.14 1148.70,234.70 1149.10,238.84 1149.50,243.46 1149.89,248.45 1150.29,253.70 1150.68,259.10 1151.08,264.51 1151.48,269.83 1151.87,274.92 1152.27,279.67 1152.66,283.98 1153.06,287.74 1153.46,290.87 1153.85,293.30 1154.25,294.98 1154.64,295.86 1155.04,295.93 1155.44,295.18 1155.83,293.64 1156.23,291.33 1156.62,288.31 1157.02,284.64 1157.42,280.42 1157.81,275.74 1158.21,270.69 1158.60,265.41 1159.00,260.00 1159.40,254.59 1159.79,249.31 1160.19,244.26 1160.58,239.58 1160.98,235.36 1161.38,231.69 1161.77,228.67 1162.17,226.36 1162.56,224.82 1162.96,224.07 1163.36,224.14 1163.75,225.02 1164.15,226.70 1164.54,229.13 1164.94,232.26 1165.34,236.02 1165.73,240.33 1166.13,245.08 1166.52,250.17 1166.92,255.49 1167.32,260.90 1167.71,266.30 1168.11,271.55 1168.50,276.54 1168.90,281.16 1169.30,285.30 1169.69,288.86 1170.00,260.00" fill="none" stroke="#2563eb" stroke-width="2.0" stroke-linejoin="round" stroke-linecap="round"/>
  <polyline points="70.00,260.00 70.07,259.10 70.13,258.19 70.20,257.29 70.26,256.39 70.33,255.49 70.40,254.59 70.46,253.70 70.53,252.81 70.59,251.93 70.66,251.05 70.73,250.17 70.79,249.31 70.86,248.45 70.92,247.59 70.99,246.75 71.06,245.91 71.12,245.08 71.19,244.26 71.25,243.46 71.32,242.66 71.39,241.87 71.45,241.09 71.52,240.33 71.58,239.58 71.65,238.84 71.72,238.11 71.78,237.40 71.85,236.71 71.91,236.02 71.98,235.36 72.05,234.70 72.11,234.07 72.18,233.45 72.24,232.85 72.31,232.26 72.38,231.69 72.44,231.14 72.51,230.61 72.57,230.10 72.64,229.60 72.71,229.13 72.77,228.67 72.84,228.24 72.90,227.82 72.97,227.43 73.04,227.05 73.10,226.70 73.17,226.36 73.23,226.05 73.30,225.76 73.37,225.49 73.43,225.25 73.50,225.02 73.56,224.82 73.63,224.64 73.70,224.48 73.76,224.34 73.83,224.23 73.89,224.14 73.96,224.07 74.03,224.03 74.09,224.00 74.16,224.00 74.22,224.03 74.29,224.07 74.36,224.14 74.42,224.23 74.49,224.34 74.55,224.48 74.62,224.64 74.69,224.82 74.75,225.02 74.82,225.25 74.88,225.49 74.95,225.76 75.02,226.05 75.08,226.36 75.15,226.70 75.21,227.05 75.28,227.43 75.35,227.82 75.41,228.24 75.48,228.67 75.54,229.13 75.61,229.60 75.68,230.10 75.74,230.61 75.81,231.14 75.87,231.69 75.94,232.26 76.01,232.85 76.07,233.45 76.14,234.07 76.20,234.70 76.27,235.36 76.34,236.02 76.40,236.71 76.47,237.40 76.53,238.11 76.60,238.84 76.67,239.58 76.73,240.33 76.80,241.09 76.86,241.87 76.93,242.66 77.00,243.46 77.06,244.26 77.13,245.08 77.19,245.91 77.26,246.75 77.33,247.59 77.39,248.45 77.46,249.31 77.52,250.17 77.59,251.05 77.66,251.93 77.72,252.81 77.79,253.70 77.85,254.59 77.92,255.49 77.99,256.39 78.05,257.29 78.12,258.19 78.18,259.10 78.25,260.00 78.32,260.90 78.38,261.81 78.45,262.71 78.51,263.61 78.58,264.51 78.65,265.41 78.71,266.30 78.78,267.19 78.84,268.07 78.91,268.95 78.98,269.83 79.04,270.69 79.11,271.55 79.17,272.41 79.24,273.25 79.31,274.09 79.37,274.92 79.44,275.74 79.50,276.54 79.57,277.34 79.64,278.13 79.70,278.91 79.77,279.67 79.83,280.42 79.90,281.16 79.97,281.89 80.03,282.60 80.10,283.29 80.16,283.98 80.23,284.64 80.30,285.30 80.36,285.93 80.43,286.55 80.49,287.15 80.56,287.74 80.63,288.31 80.69,288.86 80.76,289.39 80.82,289.90 80.89,290.40 80.96,290.87 81.02,291.33 81.09,291.76 81.15,292.18 81.22,292.57 81.29,292.95 81.35,293.30 81.42,293.64 81.48,293.95" fill="none" stroke="#ef4444" stroke-width="5.0" stroke-linejoin="round" stroke-linecap="round"/>
  <circle cx="81.55" cy="294.24" r="6" fill="#ef4444"/>
  <line x1="400.00" y1="80.00" x2="400.00" y2="440.00" stroke="#f59e0b" stroke-width="2" stroke-dasharray="8 6"/>
  <text x="408.00" y="102.00" font-family="Arial, Microsoft YaHei, sans-serif" font-size="15" fill="#92400e">30 mm local domain end, t=10.0s</text>
  <text x="91.55" y="282.24" font-family="Arial, Microsoft YaHei, sans-serif" font-size="15" fill="#b91c1c">current B2 end: 0.35 s</text>

  <g font-family="Arial, Microsoft YaHei, sans-serif" font-size="15" fill="#111">
    <text x="70" y="455">Interpretation</text>
    <text x="70" y="482">Blue: full physical sinusoidal path over 100 mm plate, about 66.7 cycles.</text>
    <text x="70" y="508">Red: actually simulated time window in B1/B2. It only covers about 1.05 mm, so the weld bead cannot look like a full sinusoidal seam yet.</text>
    <text x="70" y="534">For the existing 30 mm local model, a physical-speed full pass needs 10.0 s, about 20.0 sinusoidal cycles.</text>
  </g>
</svg>
